<?xml version="1.0" encoding="utf-8"?>
<!-- Generator: Adobe Illustrator 23.0.1, SVG Export Plug-In . SVG Version: 6.00 Build 0)  -->
<svg version="1.1" id="Layer_1" xmlns="http://www.w3.org/2000/svg" xmlns:xlink="http://www.w3.org/1999/xlink" x="0px" y="0px"
	 viewBox="0 0 960 200" style="enable-background:new 0 0 960 200;" xml:space="preserve">
<style type="text/css">
	.st0{fill:#D9C8E2;stroke:#FFFFFF;stroke-width:4;stroke-miterlimit:10;}
	.st1{fill:none;stroke:#FFFFFF;stroke-width:2;stroke-miterlimit:10;}
	.st2{opacity:0.64;fill:url(#SVGID_1_);}
	.st3{fill:none;stroke:#2E3192;stroke-width:3;stroke-miterlimit:10;}
	.st4{font-family:'AmericanTypewriter';}
	.st5{font-size:41.0488px;}
	.st6{fill:#2E3192;stroke:#662D91;stroke-miterlimit:10;}
	.st7{font-family:'AmericanTypewriter-Light';}
	.st8{font-size:13px;}
</style>
<rect class="st0" width="960" height="200"/>
<path class="st1" d="M86.5,0c3.2,3.2,464.5,200,464.5,200L684,0L211.1,200L120.7,0L25.3,200L960,0L840.7,200L720.1-3.3L953,200
	L302.7,0l-12.9,200L0,19.9"/>
<linearGradient id="SVGID_1_" gradientUnits="userSpaceOnUse" x1="318.4569" y1="102.1358" x2="960" y2="102.1358">
	<stop  offset="0" style="stop-color:#FFFFFF"/>
	<stop  offset="0" style="stop-color:#F6F2ED"/>
	<stop  offset="0.9675" style="stop-color:#00AAE1;stop-opacity:0.3"/>
</linearGradient>
<rect x="318.5" y="49.9" class="st2" width="641.5" height="104.6"/>
<rect x="413.6" y="-131.3" style="fill:none;" width="498.1" height="70.3"/>
<text transform="matrix(1 0 0 1 323.5592 110.2485)" class="st3 st4 st5">VIDEO MEDIA DESIGN 105</text>
<text transform="matrix(1 0 0 1 334.1555 143.8029)" class="st6 st7 st8">By Bouthaina Belayadi</text>
<rect x="747.2" y="240.6" style="fill:none;" width="12.9" height="1.3"/>
</svg>
